# xmcd
#
# Track frame offsets: 
#        150
#        14536
#        35275
#        48002
#        64848
#        81703
#        97168
#        113913
#        133196
#        145636
#        156450
#        170752
#        188277
#        203656
#
# Disc length: 3005 seconds
#
# Revision: 2
# Processed by: cddbd v1.5.2PL0 Copyright (c) Steve Scherf et al.
# Submitted via: ExactAudioCopy v1.3
#
DISCID=c30bbb0e
DTITLE=Keltand - Las AGUAS siguen CLARAS
DYEAR=1900
DGENRE=
TTITLE0=Brian Boru's March
TTITLE1=Are you St. Anne?
TTITLE2=Cagueran Goalach
TTITLE3=Danza de John Slater - Banjo viendo notas
TTITLE4=Peata Beag
TTITLE5=Polca de John Ryan
TTITLE6=Le Roi
TTITLE7=Anunciacion
TTITLE8=Puirt a beul
TTITLE9=Can Pryderi
TTITLE10=Xota de Xorge
TTITLE11=The Sally Gardens
TTITLE12=The Morrison's Jig
TTITLE13=The High Road to Linton
EXTD=
EXTT0=
EXTT1=
EXTT2=
EXTT3=
EXTT4=
EXTT5=
EXTT6=
EXTT7=
EXTT8=
EXTT9=
EXTT10=
EXTT11=
EXTT12=
EXTT13=
PLAYORDER=
